<mxfile host="65bd71144e">
    <diagram id="lDn-x31davE9-ltwUrlM" name="Page-1">
        <mxGraphModel dx="553" dy="366" grid="1" gridSize="10" guides="1" tooltips="1" connect="1" arrows="1" fold="1" page="1" pageScale="1" pageWidth="850" pageHeight="1100" math="0" shadow="0">
            <root>
                <mxCell id="0"/>
                <mxCell id="1" parent="0"/>
                <mxCell id="2" value="STM32" style="whiteSpace=wrap;html=1;aspect=fixed;" parent="1" vertex="1">
                    <mxGeometry x="360" y="220" width="125" height="125" as="geometry"/>
                </mxCell>
                <mxCell id="6" value="Rotary Encoder" style="rounded=0;whiteSpace=wrap;html=1;rotation=90;" parent="1" vertex="1">
                    <mxGeometry x="15" y="235" width="120" height="90" as="geometry"/>
                </mxCell>
                <mxCell id="34" style="edgeStyle=none;html=1;exitX=1;exitY=0.25;exitDx=0;exitDy=0;entryX=0;entryY=0.54;entryDx=0;entryDy=0;entryPerimeter=0;fontSize=11;endArrow=none;endFill=0;" parent="1" source="2" target="32" edge="1">
                    <mxGeometry relative="1" as="geometry"/>
                </mxCell>
                <mxCell id="36" value="D3" style="edgeLabel;html=1;align=center;verticalAlign=middle;resizable=0;points=[];fontSize=11;" parent="34" vertex="1" connectable="0">
                    <mxGeometry x="0.5218" y="-1" relative="1" as="geometry">
                        <mxPoint x="-72" y="10" as="offset"/>
                    </mxGeometry>
                </mxCell>
                <mxCell id="35" style="edgeStyle=none;html=1;exitX=1;exitY=0.75;exitDx=0;exitDy=0;entryX=0;entryY=0.54;entryDx=0;entryDy=0;entryPerimeter=0;fontSize=11;endArrow=none;endFill=0;" parent="1" source="2" target="33" edge="1">
                    <mxGeometry relative="1" as="geometry">
                        <Array as="points">
                            <mxPoint x="530" y="320"/>
                        </Array>
                    </mxGeometry>
                </mxCell>
                <mxCell id="37" value="D4" style="edgeLabel;html=1;align=center;verticalAlign=middle;resizable=0;points=[];fontSize=11;" parent="35" vertex="1" connectable="0">
                    <mxGeometry x="-0.1694" relative="1" as="geometry">
                        <mxPoint x="-46" y="-7" as="offset"/>
                    </mxGeometry>
                </mxCell>
                <mxCell id="19" style="edgeStyle=none;html=1;endArrow=none;endFill=0;entryX=0.322;entryY=0.002;entryDx=0;entryDy=0;entryPerimeter=0;exitX=0.002;exitY=0.333;exitDx=0;exitDy=0;exitPerimeter=0;" parent="1" source="2" target="6" edge="1">
                    <mxGeometry relative="1" as="geometry">
                        <Array as="points"/>
                        <mxPoint x="370" y="244" as="sourcePoint"/>
                        <mxPoint x="120" y="230" as="targetPoint"/>
                    </mxGeometry>
                </mxCell>
                <mxCell id="20" value="GND" style="edgeLabel;html=1;align=center;verticalAlign=middle;resizable=0;points=[];" parent="19" vertex="1" connectable="0">
                    <mxGeometry x="-0.2042" relative="1" as="geometry">
                        <mxPoint x="112" as="offset"/>
                    </mxGeometry>
                </mxCell>
                <mxCell id="28" value="GND" style="edgeLabel;html=1;align=center;verticalAlign=middle;resizable=0;points=[];" parent="19" vertex="1" connectable="0">
                    <mxGeometry x="0.738" y="-2" relative="1" as="geometry">
                        <mxPoint x="-47" as="offset"/>
                    </mxGeometry>
                </mxCell>
                <mxCell id="7" style="edgeStyle=none;html=1;exitX=0.002;exitY=0.079;exitDx=0;exitDy=0;entryX=0.089;entryY=-0.015;entryDx=0;entryDy=0;entryPerimeter=0;exitPerimeter=0;fillColor=#e51400;strokeColor=#B20000;endArrow=none;endFill=0;" parent="1" source="2" target="6" edge="1">
                    <mxGeometry relative="1" as="geometry"/>
                </mxCell>
                <mxCell id="14" value="3V3" style="edgeLabel;html=1;align=center;verticalAlign=middle;resizable=0;points=[];" parent="7" vertex="1" connectable="0">
                    <mxGeometry x="-0.6042" y="-2" relative="1" as="geometry">
                        <mxPoint x="61" y="2" as="offset"/>
                    </mxGeometry>
                </mxCell>
                <mxCell id="29" value="+" style="edgeLabel;html=1;align=center;verticalAlign=middle;resizable=0;points=[];fontSize=16;" parent="7" vertex="1" connectable="0">
                    <mxGeometry x="0.7621" y="-1" relative="1" as="geometry">
                        <mxPoint x="-42" as="offset"/>
                    </mxGeometry>
                </mxCell>
                <mxCell id="10" style="edgeStyle=none;html=1;fillColor=#60a917;strokeColor=#2D7600;endArrow=none;endFill=0;exitX=-0.004;exitY=0.563;exitDx=0;exitDy=0;exitPerimeter=0;" parent="1" source="2" edge="1">
                    <mxGeometry relative="1" as="geometry">
                        <mxPoint x="370" y="290" as="sourcePoint"/>
                        <mxPoint x="120" y="290" as="targetPoint"/>
                    </mxGeometry>
                </mxCell>
                <mxCell id="16" value="A0" style="edgeLabel;html=1;align=center;verticalAlign=middle;resizable=0;points=[];" parent="10" vertex="1" connectable="0">
                    <mxGeometry x="-0.5625" y="-1" relative="1" as="geometry">
                        <mxPoint x="63" y="1" as="offset"/>
                    </mxGeometry>
                </mxCell>
                <mxCell id="30" value="DT" style="edgeLabel;html=1;align=center;verticalAlign=middle;resizable=0;points=[];fontSize=11;" parent="10" vertex="1" connectable="0">
                    <mxGeometry x="0.8315" y="-3" relative="1" as="geometry">
                        <mxPoint x="-31" as="offset"/>
                    </mxGeometry>
                </mxCell>
                <mxCell id="11" style="edgeStyle=none;html=1;exitX=-0.002;exitY=0.875;exitDx=0;exitDy=0;exitPerimeter=0;fillColor=#1ba1e2;strokeColor=#006EAF;endArrow=none;endFill=0;" parent="1" source="2" edge="1">
                    <mxGeometry relative="1" as="geometry">
                        <mxPoint x="120" y="329" as="targetPoint"/>
                    </mxGeometry>
                </mxCell>
                <mxCell id="17" value="A1" style="edgeLabel;html=1;align=center;verticalAlign=middle;resizable=0;points=[];" parent="11" vertex="1" connectable="0">
                    <mxGeometry x="-0.7708" y="-1" relative="1" as="geometry">
                        <mxPoint x="42" y="1" as="offset"/>
                    </mxGeometry>
                </mxCell>
                <mxCell id="31" value="CLK" style="edgeLabel;html=1;align=center;verticalAlign=middle;resizable=0;points=[];fontSize=11;" parent="11" vertex="1" connectable="0">
                    <mxGeometry x="0.7748" y="-1" relative="1" as="geometry">
                        <mxPoint x="-38" as="offset"/>
                    </mxGeometry>
                </mxCell>
                <mxCell id="32" value="" style="verticalLabelPosition=bottom;shadow=0;dashed=0;align=center;html=1;verticalAlign=top;shape=mxgraph.electrical.opto_electronics.led_1;pointerEvents=1;fontSize=11;" parent="1" vertex="1">
                    <mxGeometry x="560" y="200" width="100" height="65" as="geometry"/>
                </mxCell>
                <mxCell id="33" value="" style="verticalLabelPosition=bottom;shadow=0;dashed=0;align=center;html=1;verticalAlign=top;shape=mxgraph.electrical.opto_electronics.led_1;pointerEvents=1;fontSize=11;" parent="1" vertex="1">
                    <mxGeometry x="560" y="290" width="100" height="65" as="geometry"/>
                </mxCell>
                <mxCell id="42" style="edgeStyle=none;html=1;exitX=0;exitY=0.5;exitDx=0;exitDy=0;exitPerimeter=0;entryX=1;entryY=0.54;entryDx=0;entryDy=0;entryPerimeter=0;endArrow=none;endFill=0;" parent="1" source="41" target="32" edge="1">
                    <mxGeometry relative="1" as="geometry">
                        <Array as="points">
                            <mxPoint x="660" y="120"/>
                        </Array>
                    </mxGeometry>
                </mxCell>
                <mxCell id="45" style="edgeStyle=none;html=1;exitX=0;exitY=0.5;exitDx=0;exitDy=0;exitPerimeter=0;entryX=1;entryY=0.54;entryDx=0;entryDy=0;entryPerimeter=0;endArrow=none;endFill=0;" parent="1" source="41" target="33" edge="1">
                    <mxGeometry relative="1" as="geometry">
                        <Array as="points">
                            <mxPoint x="660" y="120"/>
                        </Array>
                    </mxGeometry>
                </mxCell>
                <mxCell id="41" value="220&amp;nbsp;&lt;span style=&quot;background-color: rgb(40 , 42 , 54) ; color: rgb(246 , 246 , 244) ; font-family: &amp;#34;consolas&amp;#34; , &amp;#34;courier new&amp;#34; , monospace ; font-size: 14px&quot;&gt;Î©&lt;/span&gt;" style="pointerEvents=1;verticalLabelPosition=bottom;shadow=0;dashed=0;align=center;html=1;verticalAlign=top;shape=mxgraph.electrical.resistors.resistor_1;rotation=90;" parent="1" vertex="1">
                    <mxGeometry x="375" y="160" width="100" height="20" as="geometry"/>
                </mxCell>
                <mxCell id="63" value="GND" style="edgeLabel;html=1;align=center;verticalAlign=middle;resizable=0;points=[];" parent="1" vertex="1" connectable="0">
                    <mxGeometry x="425.0023643432718" y="230.0049601537492" as="geometry"/>
                </mxCell>
                <mxCell id="65" style="edgeStyle=none;html=1;endArrow=none;endFill=0;fillColor=#1ba1e2;strokeColor=#006EAF;" parent="1" source="64" edge="1">
                    <mxGeometry relative="1" as="geometry">
                        <mxPoint x="162.5" y="260" as="targetPoint"/>
                    </mxGeometry>
                </mxCell>
                <mxCell id="64" value="" style="pointerEvents=1;verticalLabelPosition=bottom;shadow=0;dashed=0;align=center;html=1;verticalAlign=top;shape=mxgraph.electrical.capacitors.capacitor_1;rotation=90;fillColor=#1ba1e2;fontColor=#ffffff;strokeColor=#006EAF;" parent="1" vertex="1">
                    <mxGeometry x="135" y="290" width="55" height="25" as="geometry"/>
                </mxCell>
                <mxCell id="72" style="edgeStyle=none;html=1;endArrow=none;endFill=0;fillColor=#60a917;strokeColor=#2D7600;" parent="1" source="66" edge="1">
                    <mxGeometry relative="1" as="geometry">
                        <mxPoint x="190" y="290" as="targetPoint"/>
                        <Array as="points">
                            <mxPoint x="190" y="272"/>
                        </Array>
                    </mxGeometry>
                </mxCell>
                <mxCell id="73" style="edgeStyle=none;html=1;endArrow=none;endFill=0;exitX=0;exitY=0.5;exitDx=0;exitDy=0;exitPerimeter=0;fillColor=#60a917;strokeColor=#2D7600;" parent="1" source="66" edge="1">
                    <mxGeometry relative="1" as="geometry">
                        <mxPoint x="280" y="260" as="targetPoint"/>
                        <Array as="points">
                            <mxPoint x="280" y="272"/>
                        </Array>
                    </mxGeometry>
                </mxCell>
                <mxCell id="66" value="" style="pointerEvents=1;verticalLabelPosition=bottom;shadow=0;dashed=0;align=center;html=1;verticalAlign=top;shape=mxgraph.electrical.capacitors.capacitor_1;rotation=-180;fillColor=#60a917;fontColor=#ffffff;strokeColor=#2D7600;" parent="1" vertex="1">
                    <mxGeometry x="209.42" y="262.46" width="43.61" height="20" as="geometry"/>
                </mxCell>
                <mxCell id="74" value="100nF" style="text;html=1;align=center;verticalAlign=middle;resizable=0;points=[];autosize=1;strokeColor=none;fillColor=none;fontSize=9;" vertex="1" parent="1">
                    <mxGeometry x="150" y="305" width="40" height="20" as="geometry"/>
                </mxCell>
                <mxCell id="75" value="100nF" style="text;html=1;align=center;verticalAlign=middle;resizable=0;points=[];autosize=1;strokeColor=none;fillColor=none;fontSize=9;" vertex="1" parent="1">
                    <mxGeometry x="230" y="265" width="40" height="20" as="geometry"/>
                </mxCell>
            </root>
        </mxGraphModel>
    </diagram>
</mxfile>